# xmcd
#
# Track frame offsets: 
#        150
#        28184
#        57249
#        72161
#        99341
#        121603
#        172858
#        199824
#
# Disc length: 3121 seconds
#
# Revision: 2
# Processed by: cddbd v1.5.2PL0 Copyright (c) Steve Scherf et al.
# Submitted via: ExactAudioCopy v0.95b4
#
DISCID=610c2f08
DTITLE=Robyn Hitchcock - Robyn Sings (Stripes)
DYEAR=2002
DGENRE=Rock
TTITLE0=Visions of Johanna
TTITLE1=Tangled Up In Blue
TTITLE2=Not Dark Yet
TTITLE3=4th Time Around
TTITLE4=It's All Over Now, Baby Blue
TTITLE5=Desolation Row
TTITLE6=Dignity
TTITLE7=Visions Of Johanna
EXTD=YEAR: 2002 ID3G: 17
EXTT0=
EXTT1=
EXTT2=
EXTT3=
EXTT4=
EXTT5=
EXTT6=
EXTT7=
PLAYORDER=
